<?xml version="1.0" standalone="no"?>
<!DOCTYPE svg PUBLIC "-//W3C//DTD SVG 20010904//EN"
 "http://www.w3.org/TR/2001/REC-SVG-20010904/DTD/svg10.dtd">
<svg version="1.0" xmlns="http://www.w3.org/2000/svg"
 width="900.000000pt" height="900.000000pt" viewBox="0 0 900.000000 900.000000"
 preserveAspectRatio="xMidYMid meet">
<metadata>
Created by potrace 1.14, written by Peter Selinger 2001-2017
</metadata>
<g transform="translate(0.000000,900.000000) scale(0.100000,-0.100000)"
fill="#000000" stroke="none">
<path d="M0 4500 l0 -4500 4500 0 4500 0 0 4500 0 4500 -4500 0 -4500 0 0
-4500z m7623 2440 c142 -44 255 -169 286 -318 7 -33 11 -190 11 -418 0 -418
-6 -463 -69 -562 -69 -106 -176 -173 -306 -192 -90 -13 -679 -13 -770 0 -187
27 -333 167 -365 352 -8 42 -10 193 -8 443 3 369 4 382 26 437 49 121 152 221
265 257 57 18 94 20 463 20 376 1 406 0 467 -19z m-4390 -2137 c100 -249 185
-449 189 -445 4 4 87 207 186 452 l178 445 227 3 227 2 0 -765 0 -765 -162 2
-163 3 0 528 c0 290 -3 520 -8 510 -4 -10 -99 -247 -212 -528 l-204 -510 -72
0 -72 0 -211 526 -211 526 -3 -528 -2 -529 -160 0 -160 0 0 765 0 765 226 -2
226 -3 181 -452z m-1228 432 c129 -34 215 -101 265 -206 88 -186 20 -402 -152
-489 -34 -16 -54 -30 -44 -30 35 0 115 -51 163 -103 108 -118 131 -296 59
-453 -51 -110 -172 -193 -311 -214 -38 -5 -256 -10 -482 -10 l-413 0 0 760 0
760 428 0 c354 0 438 -3 487 -15z m3375 -14 c104 -27 226 -86 302 -146 190
-149 292 -421 259 -685 -41 -319 -240 -542 -559 -627 -94 -25 -108 -26 -469
-31 l-373 -4 0 762 0 761 378 -4 c350 -3 383 -5 462 -26z m2293 -9 c121 -60
208 -171 236 -300 7 -34 11 -186 11 -418 0 -422 -5 -465 -72 -564 -48 -72
-104 -120 -184 -157 l-59 -28 -445 0 -445 0 -68 33 c-126 62 -213 177 -237
314 -7 42 -10 194 -8 443 3 366 4 382 26 435 51 127 142 216 261 257 65 23 72
23 491 20 l425 -2 68 -33z m2 -1711 c122 -60 205 -167 234 -299 15 -72 15
-761 0 -834 -38 -178 -185 -314 -364 -337 -93 -12 -670 -12 -765 0 -188 23
-334 161 -370 348 -13 70 -13 742 0 811 29 155 133 276 280 330 52 19 77 20
485 17 l430 -2 70 -34z"/>
<path d="M6788 6770 c-82 -14 -141 -61 -177 -140 -20 -43 -21 -64 -21 -425 0
-361 1 -382 21 -425 25 -55 62 -95 114 -123 39 -21 49 -22 435 -22 389 0 396
0 436 22 53 28 107 91 122 142 17 53 17 759 0 812 -16 53 -69 113 -126 141
-46 23 -52 23 -402 25 -195 1 -376 -2 -402 -7z"/>
<path d="M1410 4805 l0 -167 228 4 c252 3 269 7 314 70 31 45 33 143 2 184
-50 68 -52 69 -310 72 l-234 3 0 -166z"/>
<path d="M1410 4190 l0 -170 198 -2 c225 -3 295 3 331 29 99 75 91 231 -14
290 -38 22 -50 23 -277 23 l-238 0 0 -170z"/>
<path d="M4860 4490 l0 -470 168 0 c112 0 188 5 230 15 220 52 352 225 352
462 0 144 -46 259 -138 345 -104 97 -180 118 -429 118 l-183 0 0 -470z"/>
<path d="M6782 5060 c-79 -16 -136 -64 -171 -140 -20 -43 -21 -64 -21 -425 0
-361 1 -382 21 -425 25 -55 62 -95 114 -123 39 -21 49 -22 435 -22 389 0 396
0 436 22 53 28 107 91 122 142 17 54 17 759 0 813 -16 53 -78 121 -130 144
-39 17 -77 19 -403 21 -198 1 -379 -2 -403 -7z"/>
<path d="M6767 3346 c-65 -18 -117 -61 -149 -126 l-28 -54 0 -380 c0 -378 0
-381 24 -431 27 -58 78 -107 133 -126 29 -11 123 -14 413 -14 339 0 380 2 422
18 57 22 119 89 136 145 17 55 17 759 0 814 -16 52 -78 121 -130 144 -39 17
-77 19 -408 21 -276 2 -377 -1 -413 -11z"/>
</g>
</svg>
